PathFileType	4	(X/Y/Z)	/Users/itak/Documents/Research/Walk-IL/dataset/trc/00275_00010.trc
DataRate	CameraRate	NumFrames	NumMarkers	Units	OrigDataRate	OrigDataStartFrame	OrigNumFrames
100.000000	100.000000	4	53	mm	100.000000	130	522
Frame#	Time	RPSI			LPSI			L3			STRN			T10			C7			CLAV			RBAK			LBAK			LSHO			LUPA			LAEL			LAOL			LWTS			LWPS			LFRA			LIFD			LHPS			LHTS			RSHO			RUPA			RAEL			RAOL			RWTS			RWPS			RFRA			RIFD			RHTS			RHPS			RBHD			LFHD			RFHD			LBHD			LHIP			RHIP			RASI			LASI			LKNE			LTHI			LANK			LTIP			LTOE			LMT1			LMT5			LHEE			RKNE			RTHI			RANK			RTIP			RTOE			RMT1			RMT5			RHEE			
		X1	Y1	Z1	X2	Y2	Z2	X3	Y3	Z3	X4	Y4	Z4	X5	Y5	Z5	X6	Y6	Z6	X7	Y7	Z7	X8	Y8	Z8	X9	Y9	Z9	X10	Y10	Z10	X11	Y11	Z11	X12	Y12	Z12	X13	Y13	Z13	X14	Y14	Z14	X15	Y15	Z15	X16	Y16	Z16	X17	Y17	Z17	X18	Y18	Z18	X19	Y19	Z19	X20	Y20	Z20	X21	Y21	Z21	X22	Y22	Z22	X23	Y23	Z23	X24	Y24	Z24	X25	Y25	Z25	X26	Y26	Z26	X27	Y27	Z27	X28	Y28	Z28	X29	Y29	Z29	X30	Y30	Z30	X31	Y31	Z31	X32	Y32	Z32	X33	Y33	Z33	X34	Y34	Z34	X35	Y35	Z35	X36	Y36	Z36	X37	Y37	Z37	X38	Y38	Z38	X39	Y39	Z39	X40	Y40	Z40	X41	Y41	Z41	X42	Y42	Z42	X43	Y43	Z43	X44	Y44	Z44	X45	Y45	Z45	X46	Y46	Z46	X47	Y47	Z47	X48	Y48	Z48	X49	Y49	Z49	X50	Y50	Z50	X51	Y51	Z51	X52	Y52	Z52	X53	Y53	Z53	

131	1.3	753.6703491210938	979.4761962890625	111.145881652832	761.1357421875	963.8043212890625	-63.38510894775391	780.8095703125	1057.923828125	28.06826210021973	1054.515991210938	1215.879638671875	30.42328643798828	784.0321044921875	1178.872802734375	34.05491638183594	851.906982421875	1416.790405273438	17.38076591491699	1001.08984375	1320.931030273438	26.84173393249512	789.7762451171875	1287.31103515625	96.42234039306641	833.3632202148438	1382.843505859375	-84.32386779785156	923.4561157226562	1381.541259765625	-134.9048767089844	881.3192138671875	1268.782958984375	-208.2260437011719	865.6099243164062	1066.81591796875	-225.1389770507812	803.075927734375	1058.389038085938	-163.8776245117188	948.5416259765625	850.77734375	-179.8629455566406	910.8637084960938	836.246826171875	-240.375	876.9849243164062	963.6367797851562	-233.6812744140625	961.065185546875	663.2979736328125	-178.4660034179688	918.4163818359375	748.2105712890625	-236.2808380126953	974.8202514648438	753.7921142578125	-202.9933319091797	919.4705200195312	1393.1015625	176.1059265136719	908.3724975585938	1339.165405273438	244.7706298828125	866.3697509765625	1081.712524414062	313.0709838867188	835.4380493164062	1067.665893554688	224.4208526611328	994.7352905273438	875.0203857421875	283.0692138671875	947.56298828125	866.824951171875	353.1549987792969	893.6201171875	1019.364135742188	332.726318359375	1031.139526367188	694.5159301757812	292.6278686523438	1041.48583984375	767.4931640625	309.1987915039062	990.0767211914062	760.4110717773438	356.4948120117188	830.62744140625	1530.84521484375	75.19630432128906	980.1300048828125	1632.060546875	-36.53400802612305	975.3779296875	1629.18798828125	56.39357376098633	842.8063354492188	1525.872314453125	-72.29755401611328	843.4000854492188	918.4010620117188	-152.7404479980469	851.3605346679688	939.2174072265625	219.2331390380859	975.1923217773438	945.4945068359375	153.9697875976562	974.7267456054688	936.4190673828125	-96.82511901855469	1043.51416015625	485.8251037597656	-157.2314910888672	987.8052368164062	618.28271484375	-163.7479248046875	802.1866455078125	97.56397247314453	-142.9633331298828	924.3016967773438	287.1355590820312	-163.7910766601562	997.2398071289062	50.54009628295898	-78.87649536132812	926.3715209960938	50.07614517211914	-41.88036727905273	919.9553833007812	64.38850402832031	-150.8696136474609	753.8392944335938	105.4960403442383	-86.23497772216797	960.70361328125	473.4562683105469	169.3132476806641	943.5641479492188	737.1891479492188	216.7141723632812	905.0252685546875	37.10311889648438	112.0502166748047	977.37255859375	347.9254150390625	147.2330474853516	1104.630615234375	32.35239028930664	67.92479705810547	1047.560668945312	30.31057929992676	25.83496856689453	1008.621154785156	28.81730270385742	136.7359008789062	854.697265625	34.35406112670898	58.79407501220703	
132	1.31	751.7145385742188	979.4132080078125	110.673957824707	759.4906616210938	963.6935424804688	-63.86133193969727	778.9337768554688	1057.513061523438	27.56641960144043	1052.254150390625	1216.175415039062	30.69692993164062	781.8654174804688	1178.321044921875	33.75381469726562	849.0958251953125	1416.47412109375	17.73591423034668	998.536376953125	1321.135864257812	27.21444511413574	787.2091674804688	1286.66162109375	96.3082275390625	830.7965087890625	1382.654052734375	-84.10010528564453	920.9437255859375	1381.710815429688	-134.5630493164062	879.0477905273438	1268.9326171875	-208.0760650634766	863.6932373046875	1066.956665039062	-225.2496032714844	801.302978515625	1058.359130859375	-163.8146667480469	946.3970336914062	850.5987548828125	-180.2229461669922	908.7469482421875	836.2320556640625	-240.7627716064453	875.0394287109375	963.6868896484375	-233.9577026367188	958.4579467773438	663.111328125	-178.8808135986328	916.0541381835938	748.119873046875	-236.6880035400391	972.4097900390625	753.5277099609375	-203.2663726806641	916.3342895507812	1392.760131835938	176.5045013427734	905.1419677734375	1338.773803710938	245.0681610107422	862.5341796875	1081.458374023438	313.2073364257812	832.37109375	1067.34765625	224.3640747070312	991.818603515625	875.2627563476562	284.0101623535156	944.2643432617188	866.9193725585938	353.8296203613281	889.8790893554688	1019.248901367188	333.0415344238281	1028.92041015625	694.9094848632812	293.8916931152344	1038.840576171875	767.9208374023438	310.4465637207031	987.2263793945312	760.6768798828125	357.4770202636719	828.1364135742188	1530.896240234375	76.17409515380859	977.5444946289062	1631.94677734375	-35.83288955688477	973.0343017578125	1629.000610351562	57.10303497314453	839.941162109375	1526.016235351562	-71.32102203369141	842.0413208007812	918.1066284179688	-153.0590667724609	849.1881103515625	939.2168579101562	219.0052795410156	973.203125	945.4393310546875	153.9382934570312	973.0966186523438	936.1087646484375	-96.86804962158203	1040.399047851562	484.8291625976562	-157.2379760742188	985.4569091796875	617.70849609375	-163.5023498535156	786.7352294921875	104.9756469726562	-141.6629486083984	915.4122314453125	289.9019165039062	-163.1319274902344	980.1771850585938	51.29034805297852	-78.03163909912109	909.459228515625	53.2085075378418	-40.85749435424805	903.3005981445312	67.82251739501953	-149.8350677490234	738.8411865234375	114.4773101806641	-84.84517669677734	959.383544921875	473.5741882324219	169.3584289550781	941.6192016601562	737.2388916015625	216.7934417724609	905.0161743164062	37.09038162231445	112.0496520996094	976.4545288085938	348.0561828613281	147.3882904052734	1104.672241210938	32.38866806030273	67.97293090820312	1047.557006835938	30.30016708374023	25.92798042297363	1008.62255859375	28.7962589263916	136.7776184082031	854.8357543945312	34.29414367675781	58.79279327392578	
133	1.32	749.7904663085938	979.4002685546875	110.1828384399414	758.0204467773438	963.5906982421875	-64.31867980957031	777.06201171875	1057.091430664062	27.01432418823242	1049.917358398438	1216.565307617188	31.0021915435791	779.6517944335938	1177.733032226562	33.3508415222168	846.1226196289062	1416.170043945312	18.01395606994629	995.8679809570312	1321.41552734375	27.59805870056152	784.4923095703125	1285.980346679688	96.09412384033203	828.1644897460938	1382.476318359375	-83.96819305419922	918.401123046875	1381.945068359375	-134.2440185546875	876.8676147460938	1269.152709960938	-208.0059967041016	861.9697265625	1067.160522460938	-225.4908752441406	799.623779296875	1058.405151367188	-164.0184020996094	944.2245483398438	850.4080810546875	-180.5584411621094	906.8355712890625	836.3190307617188	-241.2816467285156	873.3232421875	963.842529296875	-234.3847045898438	955.6281127929688	662.9133911132812	-179.3429107666016	913.7882690429688	748.0794677734375	-237.2629547119141	969.9451904296875	753.232666015625	-203.4590454101562	912.9545288085938	1392.445190429688	176.8621063232422	901.6641845703125	1338.401733398438	245.3180999755859	858.4899291992188	1081.186157226562	313.2158813476562	829.1732788085938	1067.02685546875	224.1398162841797	988.7236938476562	875.4869995117188	284.9402770996094	940.7249755859375	866.9900512695312	354.4392395019531	885.95361328125	1019.120971679688	333.2550659179688	1026.500122070312	695.285400390625	295.1589965820312	1035.97900390625	768.3236083984375	311.7141418457031	984.1005249023438	760.914306640625	358.4189758300781	825.5068359375	1531.031372070312	77.097900390625	974.8894653320312	1631.855712890625	-35.14400482177734	970.5913696289062	1628.83837890625	57.79659271240234	836.9758911132812	1526.23388671875	-70.39739990234375	840.5762939453125	917.7939453125	-153.4251251220703	847.0966186523438	939.2536010742188	218.7266998291016	971.2377319335938	945.4041137695312	153.8523254394531	971.467529296875	935.789794921875	-96.96057891845703	1036.770874023438	483.6150207519531	-157.2589569091797	982.7654418945312	616.9796752929688	-163.3118896484375	770.8172607421875	112.7615127563477	-140.4541015625	906.0728759765625	292.7244262695312	-162.5	962.3114624023438	52.19446563720703	-77.05996704101562	891.7639770507812	56.64413070678711	-39.73265838623047	886.01416015625	71.50840759277344	-148.7683868408203	723.4102783203125	123.8985443115234	-83.57543182373047	958.0194702148438	473.7010192871094	169.3827972412109	939.6790771484375	737.30517578125	216.8228607177734	905.0025634765625	37.07196807861328	112.0507507324219	975.524169921875	348.2194213867188	147.5183715820312	1104.699829101562	32.41354751586914	68.02569580078125	1047.549560546875	30.29390716552734	26.01370811462402	1008.616271972656	28.77566719055176	136.8214874267578	854.9703979492188	34.2271728515625	58.7985725402832	
134	1.33	747.8814086914062	979.4293823242188	109.6715698242188	756.6530151367188	963.5039672851562	-64.77066040039062	775.1978759765625	1056.666015625	26.41289329528809	1047.502075195312	1217.030883789062	31.33717346191406	777.3846435546875	1177.109985351562	32.85562515258789	842.99169921875	1415.874145507812	18.21294403076172	993.0897827148438	1321.754516601562	27.99236297607422	781.6383056640625	1285.268310546875	95.78131103515625	825.4694213867188	1382.305786132812	-83.92348480224609	915.83056640625	1382.23388671875	-133.9454803466797	874.7913818359375	1269.4365234375	-208.0144805908203	860.4603271484375	1067.426879882812	-225.8574676513672	798.0399780273438	1058.517578125	-164.5067291259766	942.0247192382812	850.2003784179688	-180.8621215820312	905.1136474609375	836.490234375	-241.9080505371094	871.8524780273438	964.10498046875	-234.9555358886719	952.556640625	662.6880493164062	-179.8401184082031	911.6161499023438	748.0842895507812	-237.9972534179688	967.427001953125	752.90380859375	-203.5767974853516	909.3485717773438	1392.149291992188	177.1787567138672	897.9533081054688	1338.046875	245.5217742919922	854.2456665039062	1080.896484375	313.0915222167969	825.851806640625	1066.69970703125	223.7487487792969	985.4514770507812	875.6914672851562	285.8624877929688	936.940185546875	867.03173828125	354.9802856445312	881.8248291015625	1018.974731445312	333.3577880859375	1023.876403808594	695.6402587890625	296.4277038574219	1032.903198242188	768.7015991210938	313.0063781738281	980.6923828125	761.11767578125	359.3171691894531	822.7424926757812	1531.23486328125	77.96122741699219	972.1636962890625	1631.781372070312	-34.46969223022461	968.0430908203125	1628.695556640625	58.4720573425293	833.92138671875	1526.514892578125	-69.53802490234375	839.0188598632812	917.487060546875	-153.8292388916016	845.0704956054688	939.3217163085938	218.4012603759766	969.2922973632812	945.37939453125	153.7110748291016	969.8289794921875	935.455810546875	-97.10233306884766	1032.602172851562	482.1920776367188	-157.3055267333984	979.7047119140625	616.0889282226562	-163.1822967529297	754.5557861328125	120.8296813964844	-139.3624877929688	896.3076782226562	295.585205078125	-161.9164123535156	943.7689208984375	53.26114273071289	-76.01194763183594	873.458984375	60.39492416381836	-38.55945205688477	868.2119750976562	75.42166137695312	-147.7078247070312	707.6735229492188	133.6561279296875	-82.44384002685547	956.6319580078125	473.8326110839844	169.3766784667969	937.7481079101562	737.3804931640625	216.8044586181641	904.9852905273438	37.04906845092773	112.0536956787109	974.5982055664062	348.4101257324219	147.6225280761719	1104.717041015625	32.42884826660156	68.08047485351562	1047.542602539062	30.29767417907715	26.08726501464844	1008.603881835938	28.75573348999023	136.8662414550781	855.0828857421875	34.16085815429688	58.81231689453125	
